<svg width="958" height="651" viewBox="0 0 958 651" fill="none" xmlns="http://www.w3.org/2000/svg">
<g clip-path="url(#clip0_5_3)">
<path opacity="0.1" d="M345.851 487.065C527.148 487.065 674.117 482.366 674.117 476.57C674.117 470.773 527.148 466.074 345.851 466.074C164.555 466.074 17.5857 470.773 17.5857 476.57C17.5857 482.366 164.555 487.065 345.851 487.065Z" fill="#683C9D"/>
<g opacity="0.7">
<path d="M223.589 399.101H118.913V468.073H223.589V399.101Z" fill="#65617D"/>
<path opacity="0.1" d="M187.58 411.096H155.759V419.093H187.58V411.096Z" fill="black"/>
<path opacity="0.1" d="M183.603 412.095H159.736V418.093H183.603V412.095Z" fill="black"/>
<path d="M329.941 399.101H225.264V468.073H329.941V399.101Z" fill="#65617D"/>
<path opacity="0.1" d="M293.932 411.096H262.11V419.093H293.932V411.096Z" fill="black"/>
<path opacity="0.1" d="M289.954 412.095H266.088V418.093H289.954V412.095Z" fill="black"/>
<path d="M223.589 328.129H118.913V397.101H223.589V328.129Z" fill="#65617D"/>
<path opacity="0.1" d="M187.58 340.124H155.759V348.121H187.58V340.124Z" fill="black"/>
<path opacity="0.1" d="M183.603 341.124H159.736V347.121H183.603V341.124Z" fill="black"/>
<path d="M329.941 328.129H225.264V397.101H329.941V328.129Z" fill="#65617D"/>
<path opacity="0.1" d="M293.932 340.124H262.11V348.121H293.932V340.124Z" fill="black"/>
<path opacity="0.1" d="M289.954 341.124H266.088V347.121H289.954V341.124Z" fill="black"/>
<path d="M223.589 256.158H118.913V325.13H223.589V256.158Z" fill="#65617D"/>
<path opacity="0.1" d="M187.58 268.153H155.759V276.15H187.58V268.153Z" fill="black"/>
<path opacity="0.1" d="M183.603 269.153H159.736V275.15H183.603V269.153Z" fill="black"/>
<path d="M329.941 256.158H225.264V325.13H329.941V256.158Z" fill="#65617D"/>
<path opacity="0.1" d="M293.932 268.153H262.11V276.15H293.932V268.153Z" fill="black"/>
<path opacity="0.1" d="M289.954 269.153H266.088V275.15H289.954V269.153Z" fill="black"/>
<path d="M329.941 184.186H225.264V253.159H329.941V184.186Z" fill="#65617D"/>
<path opacity="0.1" d="M293.932 196.182H262.11V204.178H293.932V196.182Z" fill="black"/>
<path opacity="0.1" d="M289.954 197.181H266.088V203.179H289.954V197.181Z" fill="black"/>
</g>
<g opacity="0.7">
<path d="M436.292 398.101H331.615V467.073H436.292V398.101Z" fill="#65617D"/>
<path opacity="0.1" d="M400.283 410.096H368.462V418.093H400.283V410.096Z" fill="black"/>
<path opacity="0.1" d="M396.305 411.096H372.439V417.093H396.305V411.096Z" fill="black"/>
<path d="M542.643 398.101H437.967V467.073H542.643V398.101Z" fill="#65617D"/>
<path opacity="0.1" d="M506.635 410.096H474.813V418.093H506.635V410.096Z" fill="black"/>
<path opacity="0.1" d="M502.657 411.096H478.791V417.093H502.657V411.096Z" fill="black"/>
<path d="M436.292 327.129H331.615V396.102H436.292V327.129Z" fill="#65617D"/>
<path opacity="0.1" d="M400.283 339.125H368.462V347.121H400.283V339.125Z" fill="black"/>
<path opacity="0.1" d="M396.305 340.124H372.439V346.122H396.305V340.124Z" fill="black"/>
<path d="M542.643 327.129H437.967V396.102H542.643V327.129Z" fill="#65617D"/>
<path opacity="0.1" d="M506.635 339.125H474.813V347.121H506.635V339.125Z" fill="black"/>
<path opacity="0.1" d="M502.657 340.124H478.791V346.122H502.657V340.124Z" fill="black"/>
<path d="M436.292 255.158H331.615V324.131H436.292V255.158Z" fill="#65617D"/>
<path opacity="0.1" d="M400.283 267.153H368.462V275.15H400.283V267.153Z" fill="black"/>
<path opacity="0.1" d="M396.305 268.153H372.439V274.151H396.305V268.153Z" fill="black"/>
<path d="M542.643 255.158H437.967V324.131H542.643V255.158Z" fill="#65617D"/>
<path opacity="0.1" d="M506.635 267.153H474.813V275.15H506.635V267.153Z" fill="black"/>
<path opacity="0.1" d="M502.657 268.153H478.791V274.151H502.657V268.153Z" fill="black"/>
<path d="M542.643 183.187H437.967V252.159H542.643V183.187Z" fill="#65617D"/>
<path opacity="0.1" d="M506.635 195.182H474.813V203.179H506.635V195.182Z" fill="black"/>
<path opacity="0.1" d="M502.657 196.182H478.791V202.179H502.657V196.182Z" fill="black"/>
</g>
<path opacity="0.1" d="M735.491 0.109956C735.491 0.109956 664.989 -4.96802 673.28 54.0084C673.28 54.0084 671.605 64.4343 679.544 69.1624C679.544 69.1624 679.669 64.7941 686.779 66.2835C689.31 66.7843 691.881 66.932 694.441 66.7233C697.899 66.4383 701.186 64.8172 703.803 62.1052C703.803 62.1052 723.625 52.3291 731.329 13.6645C731.329 13.6645 737.032 5.22791 736.806 3.05877L724.906 9.12635C724.906 9.12635 728.976 19.3723 725.744 27.8889C725.744 27.8889 725.358 9.49621 723.072 9.89605C722.612 9.98601 716.892 13.4446 716.892 13.4446C716.892 13.4446 723.885 31.2875 718.609 44.2623C718.609 44.2623 720.61 22.2711 714.706 14.7341L706.332 20.5718C706.332 20.5718 714.506 39.0044 708.962 54.0484C708.962 54.0484 710.385 30.9776 704.565 21.9912L696.978 29.0584C696.978 29.0584 704.658 47.2311 699.976 59.7062C699.976 59.7062 699.365 32.8469 695.337 30.8177C695.337 30.8177 688.696 37.8149 687.683 40.6737C687.683 40.6737 692.942 53.8685 689.676 60.8257C689.676 60.8257 687.675 42.9328 686.033 42.8329C686.033 42.8329 679.418 54.6882 678.731 62.8249C678.731 62.8249 679.016 50.7297 684.434 41.7033C684.434 41.7033 678.036 43.0128 674.301 47.9708C674.301 47.9708 675.331 39.5842 686.067 38.8545C686.067 38.8545 691.535 29.8581 692.992 29.3083C692.992 29.3083 682.324 28.2487 675.851 31.6674C675.851 31.6674 681.545 23.7605 694.952 27.3591L702.447 20.052C702.447 20.052 688.395 17.7629 682.433 20.2919C682.433 20.2919 689.291 13.2947 704.465 18.4026L712.638 12.625C712.638 12.625 700.655 9.54618 693.52 10.6258C693.52 10.6258 701.057 5.77769 715.033 11.0356L720.895 7.90684C720.895 7.90684 712.119 5.84766 709.548 5.51779C706.977 5.18792 706.843 4.34826 706.843 4.34826C712.403 3.24156 718.111 3.99942 723.332 6.53739C723.332 6.53739 735.709 1.03958 735.491 0.109956Z" fill="#683C9D"/>
<path opacity="0.1" d="M648.534 15.114C648.534 15.114 616.713 12.8149 620.439 39.4742C620.439 39.4742 619.694 44.1824 623.261 46.3215C623.261 46.3215 623.32 44.3223 626.535 45.012C627.678 45.2415 628.838 45.3086 629.994 45.2119C631.557 45.0851 633.042 44.3514 634.223 43.1228C634.223 43.1228 643.183 38.7145 646.667 21.2415C646.667 21.2415 649.238 17.423 649.137 16.4434L643.761 19.1823C643.761 19.1823 645.603 23.8205 644.154 27.6689C644.154 27.6689 643.979 19.3523 642.949 19.5522C642.739 19.5522 640.152 21.1515 640.152 21.1515C640.152 21.1515 643.317 29.2183 640.93 35.086C640.93 35.086 641.835 25.1499 639.164 21.7413L635.378 24.3802C635.378 24.3802 639.08 32.7069 636.568 39.5042C636.568 39.5042 637.212 29.0784 634.583 25.02L631.158 28.2087C631.158 28.2087 634.625 36.4254 632.514 42.0632C632.514 42.0632 632.238 29.918 630.413 29.0084C630.413 29.0084 627.415 32.1672 626.954 33.4666C626.954 33.4666 629.332 39.4642 627.858 42.563C627.858 42.563 626.954 34.4762 626.184 34.4462C626.184 34.4462 623.202 39.8041 622.884 43.4426C623.034 40.0469 623.923 36.7565 625.463 33.8965C623.738 34.2865 622.146 35.2698 620.883 36.7253C620.883 36.7253 621.352 32.9468 626.2 32.607C626.2 32.607 628.713 28.5486 629.332 28.2987C629.332 28.2987 624.509 27.8189 621.586 29.3683C621.586 29.3683 624.157 25.7897 630.22 27.419L633.57 24.1204C633.57 24.1204 627.222 23.1208 624.526 24.2303C624.526 24.2303 627.624 21.0716 634.482 23.3707L638.167 20.7417C638.167 20.7417 632.757 19.3423 629.525 19.8521C629.525 19.8521 632.933 17.6529 639.247 20.032L641.885 18.6226C641.885 18.6226 637.916 17.6829 636.752 17.543C635.588 17.403 635.529 17.0132 635.529 17.0132C638.043 16.514 640.624 16.8601 642.982 18.0128C642.982 18.0128 648.635 15.5338 648.534 15.114Z" fill="#683C9D"/>
<path d="M187.74 644.503C206.336 644.503 221.412 641.459 221.412 637.705C221.412 633.951 206.336 630.908 187.74 630.908C169.143 630.908 154.067 633.951 154.067 637.705C154.067 641.459 169.143 644.503 187.74 644.503Z" fill="#683C9D"/>
<path d="M201.666 626.59C203.203 625.095 204.322 623.076 204.873 620.802C205.292 618.513 204.471 615.804 202.629 614.914C200.569 613.975 198.366 615.684 196.7 617.403C195.033 619.123 193.116 621.092 190.938 620.722C192.06 619.505 192.9 617.963 193.375 616.245C193.851 614.527 193.946 612.691 193.652 610.916C193.556 610.181 193.296 609.49 192.898 608.917C191.751 607.457 189.682 608.077 188.309 609.227C183.954 612.885 182.74 619.952 182.715 626.3C182.28 624.011 182.648 621.622 182.64 619.303C182.631 616.984 182.087 614.305 180.421 613.075C179.393 612.415 178.237 612.091 177.071 612.135C175.12 612.046 172.934 612.285 171.603 613.995C169.928 616.114 170.372 619.672 171.812 621.992C173.252 624.311 175.455 625.8 177.481 627.409C179.102 628.563 180.485 630.138 181.526 632.018C181.651 632.28 181.752 632.558 181.827 632.847H194.104C196.849 631.178 199.393 629.073 201.666 626.59Z" fill="#683C9D"/>
<path d="M600.726 341.873C600.658 341.116 600.431 340.392 600.066 339.767C599.702 339.141 599.212 338.635 598.641 338.295C598.161 338.05 597.644 337.924 597.121 337.923C596.599 337.922 596.081 338.046 595.6 338.289C595.119 338.531 594.683 338.887 594.32 339.334C593.956 339.782 593.671 340.312 593.483 340.894L574.884 387.605L570.697 571.532H577.396L579.908 388.015L600.375 344.772C600.745 343.874 600.868 342.86 600.726 341.873Z" fill="#3F3D56"/>
<path opacity="0.1" d="M900.688 613.075C895.201 618.799 889.292 623.922 883.035 628.379C882.937 628.543 882.828 628.697 882.708 628.839C882.044 629.512 881.254 629.985 880.405 630.218C859.653 644.024 836.265 651.193 812.508 651.03H352.082C299.325 644.553 267.135 635.966 267.135 626.54C267.135 619.233 286.462 612.425 319.741 606.728C323.191 606.128 326.789 605.548 330.535 604.988C332.841 604.642 335.2 604.309 337.611 603.989L341.706 603.419C344.743 603.006 347.861 602.603 351.06 602.209H351.32L354.669 601.81C357.5 601.46 360.389 601.13 363.337 600.81L365.48 600.58L370.949 600C374.499 599.621 378.128 599.257 381.835 598.911C384.911 598.624 388.037 598.338 391.214 598.051C423.421 595.202 460.552 593.053 500.957 591.664L512.497 591.194L516.382 591.094L524.589 590.874L527.88 590.794L531.338 590.714L533.8 590.664L545.357 590.444L551.294 590.344H552.508C566.549 590.144 580.852 590.041 595.417 590.034C624.207 590.034 652.127 590.444 678.731 591.224C694.006 591.664 708.814 592.223 723.156 592.903H723.29C764.641 594.842 801.655 597.701 832.288 601.25L832.849 601.32C840.712 602.229 848.157 603.199 855.141 604.199C861.714 605.138 867.886 606.128 873.614 607.138C875.599 607.487 877.525 607.847 879.4 608.197L879.878 608.297C887.816 609.826 894.784 611.386 900.688 613.075Z" fill="#683C9D"/>
<path d="M883.035 628.379C882.937 628.543 882.828 628.697 882.708 628.839C882.044 629.512 881.254 629.985 880.405 630.218C878.712 630.785 876.97 631.121 875.213 631.218H874.686C873.683 631.258 872.678 631.218 871.68 631.098C870.95 630.972 870.214 630.915 869.477 630.928H869.377C868.306 631.108 867.253 631.419 866.236 631.858C863.971 632.599 861.635 632.995 859.286 633.037H858.448C855.819 633.037 853.156 632.927 850.518 632.947C850.091 632.947 849.681 632.947 849.237 632.947C844.715 633.087 840.218 633.947 835.696 634.037H834.247C829.817 633.907 825.287 632.777 821.761 629.579C821.05 629.017 820.473 628.246 820.087 627.339C819.786 626.383 819.686 625.354 819.793 624.341C819.877 622.531 820.17 620.562 821.309 619.343C822.025 618.687 822.846 618.214 823.721 617.953C825.253 617.363 826.794 616.794 828.327 616.224C829.859 615.654 831.609 615.044 833.259 614.465L833.577 614.345L834.498 614.015L835.093 613.775C835.814 613.499 836.505 613.123 837.153 612.655C838.007 612.01 838.731 611.146 839.272 610.126C839.364 609.946 839.464 609.756 839.548 609.567C839.632 609.377 839.548 609.257 839.489 609.097C839.347 607.847 839.238 606.568 839.054 605.348C836.697 604.696 834.548 603.245 832.865 601.17C831.42 599.459 830.202 597.494 829.256 595.342C827.171 590.664 826.099 585.436 824.542 580.468C822.155 572.911 818.68 565.934 815.179 559.017C811.98 552.639 808.765 546.242 805.13 540.214C802.71 536.216 800.106 532.407 797.711 528.399C790.936 517.214 786.075 504.544 783.408 491.114C783 488.537 782.42 486.004 781.674 483.537C780.234 479.339 777.596 475.92 775.553 472.081C773.356 467.944 771.852 463.337 771.123 458.517C770.704 455.778 770.001 452.819 767.715 452.519L767.472 453.089C762.732 464.085 757.867 475.28 750.724 484.257C749.581 485.576 748.536 487.011 747.6 488.545C746.849 490.032 746.178 491.575 745.59 493.163C744.46 496.015 742.959 498.636 741.144 500.93C740.604 501.582 740.015 502.174 739.385 502.699C738.548 503.425 737.618 503.982 736.63 504.349C736.241 504.49 735.843 504.597 735.441 504.668C735.441 504.788 735.483 504.898 735.491 505.018C735.499 505.138 735.541 505.278 735.558 505.408C736.79 513.406 736.262 521.648 734.026 529.329C733.967 529.568 733.9 529.798 733.825 530.038C733.479 531.158 733.102 532.257 732.694 533.337C731.673 535.986 730.458 538.525 729.504 541.214C729.345 541.674 729.185 542.133 729.043 542.593C725.693 553.299 726.531 565.254 726.095 576.76C726.057 579.275 725.807 581.78 725.35 584.237C724.781 587.006 723.868 589.864 723.365 592.723C722.907 594.867 722.87 597.107 723.257 599.271L723.056 599.361C722.16 599.76 721.247 600.12 720.334 600.46V600.61C720.661 602.849 720.979 605.088 721.305 607.317C721.582 609.237 721.908 611.316 723.03 612.675C723.336 612.976 723.616 613.31 723.868 613.675C724.529 614.914 723.943 616.554 724.069 618.023C724.253 620.102 725.861 621.872 725.61 623.941C725.497 624.559 725.259 625.135 724.918 625.619C724.576 626.103 724.141 626.481 723.65 626.72C723.238 626.943 722.805 627.107 722.36 627.21L722.084 627.279C721.582 627.389 721.079 627.449 720.577 627.509C714.338 628.249 708.016 628.989 701.835 627.729C700.613 627.479 699.399 627.15 698.159 627.03C696.593 626.946 695.025 627.023 693.47 627.259C682.005 628.555 670.475 628.822 658.977 628.059C655.987 627.859 652.554 627.279 650.971 624.231C649.656 621.702 650.134 618.433 650.795 615.544C650.985 614.482 651.327 613.467 651.808 612.545C651.863 612.445 651.924 612.352 651.993 612.265C653.534 609.976 656.431 609.836 658.926 609.926L667.083 610.216C667.886 610.294 668.694 610.22 669.478 609.996C670.801 609.537 671.806 608.277 673.045 607.567C674.603 606.678 676.562 606.568 677.685 605.048L677.827 604.828C678.025 604.506 678.209 604.173 678.38 603.829C678.38 603.759 678.455 603.689 678.497 603.619C678.527 603.557 678.561 603.497 678.597 603.439C679.627 601.82 681.428 601.28 682.893 600.25C683.115 600.096 683.325 599.919 683.521 599.721L683.689 599.541C682.111 598.197 680.735 596.544 679.619 594.653C679.188 594.1 678.87 593.436 678.689 592.713C678.587 592.17 678.622 591.603 678.79 591.084C678.826 590.956 678.871 590.833 678.924 590.714L678.966 590.614C679.535 589.275 680.708 588.065 681.352 586.696C681.377 586.652 681.397 586.605 681.411 586.556C682.299 584.557 682.475 581.458 681.16 579.848C681.83 566.684 684.861 553.859 685.531 540.654C685.799 535.426 685.69 530.178 685.891 524.93C686.092 519.682 686.561 514.594 687.055 509.447C688.161 497.681 690.84 486.156 690.463 474.341C690.431 473.239 690.47 472.136 690.581 471.042C690.577 470.962 690.577 470.882 690.581 470.802C690.849 468.381 691.482 466.037 692.448 463.885C693.662 461.452 695.037 459.139 696.56 456.968C701.71 448.971 707.898 440.974 709.732 431.138C710.679 426.06 712.772 421.412 714.857 416.844C716.088 414.125 717.37 411.336 719.337 409.337C720.403 408.456 721.393 407.451 722.294 406.338C723.667 404.219 723.717 401.29 724.529 398.771C724.948 397.461 725.593 396.262 725.911 394.912C725.911 394.772 725.97 394.642 725.995 394.502C726.18 393.141 726.278 391.764 726.288 390.384C726.288 389.984 726.338 389.594 726.38 389.205C726.869 385.253 727.831 381.405 729.236 377.779C729.412 377.319 729.579 376.849 729.746 376.39C725.883 373.699 722.475 370.17 719.698 365.984C718.756 364.629 717.939 363.158 717.261 361.596C715.536 357.507 715.142 352.849 714.33 348.371C712.387 337.695 707.94 327.639 707.321 316.723C707.136 313.395 707.321 309.956 706.349 306.807C706.082 305.956 705.766 305.128 705.403 304.328C705.252 303.989 705.11 303.649 704.959 303.329L704.792 302.949L704.364 301.949L703.678 302.589C686.546 318.602 668.559 333.267 649.832 346.492L648.224 347.631C647.387 348.113 646.658 348.826 646.097 349.71C646.03 349.84 645.972 349.97 645.913 350.1C645.528 351.05 645.427 352.099 645.076 353.099C644.322 355.388 642.388 356.847 640.411 357.527C636.836 358.625 633.044 358.041 629.818 355.898C629.408 355.648 628.981 355.388 628.612 355.098C627.633 355.746 626.6 356.272 625.53 356.668C622.181 357.827 618.672 357.777 615.205 357.767C611.738 357.757 608.196 357.767 604.913 359.127C602.719 360.016 600.592 361.486 598.315 361.626C598.052 361.646 597.79 361.646 597.527 361.626C596.229 361.448 594.965 361.005 593.793 360.316L593.106 359.946C592.75 359.745 592.404 359.521 592.067 359.277C591.701 359.006 591.361 358.688 591.054 358.327C590.611 357.796 590.288 357.139 590.116 356.418C590.003 355.896 590.003 355.349 590.116 354.828C590.149 354.594 590.25 354.382 590.401 354.229C590.55 354.123 590.722 354.071 590.895 354.079C591.855 354.066 592.814 354.163 593.759 354.368C594.314 354.459 594.874 354.496 595.434 354.478H595.735C596.229 354.415 596.707 354.232 597.139 353.939C597.571 353.647 597.948 353.252 598.248 352.779C598.339 352.633 598.413 352.471 598.465 352.299C598.567 352.018 598.618 351.715 598.616 351.41C598.621 351.333 598.621 351.256 598.616 351.18C598.264 350.99 597.913 350.8 597.578 350.57C597.402 350.46 597.234 350.34 597.067 350.22L596.966 350.14C596.666 349.896 596.385 349.618 596.129 349.31C595.966 349.118 595.823 348.903 595.702 348.671C595.479 348.309 595.312 347.903 595.208 347.471C594.518 347.299 593.803 347.323 593.123 347.541C592.21 347.841 591.289 348.481 590.384 348.701C589.928 348.838 589.448 348.813 589.003 348.631C587.696 348.071 587.236 346.172 586.959 344.542C586.909 344.232 586.85 343.913 586.809 343.593C586.712 342.978 586.712 342.348 586.809 341.734C587.213 340.337 587.986 339.134 589.011 338.305L591.758 335.556L591.959 335.356C591.959 335.086 591.866 334.816 591.833 334.546C591.737 333.929 591.737 333.295 591.833 332.677C592.238 331.283 593.011 330.084 594.035 329.258L600.115 323.151C601.254 322.011 602.493 320.812 603.975 320.692C606.178 320.512 607.936 322.691 609.586 324.44C611.663 326.64 614.184 328.439 616.955 328.659C618.275 328.731 619.595 328.514 620.849 328.019L621.561 327.739C621.41 327.369 621.26 326.999 621.117 326.63C620.874 326.02 620.632 325.4 620.397 324.78C623.964 324.51 627.205 322.171 629.91 319.372C632.615 316.574 634.935 313.265 637.665 310.516C640.612 307.517 643.995 305.288 646.985 302.399C653.935 295.672 658.55 285.786 665.986 279.858C668.565 277.789 671.546 276.14 673.305 273.061C673.849 272.061 674.26 271.062 674.821 270.062C676.604 267.063 679.661 265.684 682.181 263.605C684.702 261.526 686.896 258.477 688.948 255.548C690.405 253.459 691.87 251.37 693.26 249.22C694.542 246.372 695.622 243.393 696.962 240.584C698.099 238.211 699.425 235.975 700.923 233.907C701.266 233.107 701.618 232.307 701.995 231.528C702.371 230.748 702.648 230.218 703 229.528C703.242 229.078 703.494 228.649 703.753 228.209C702.991 226.6 702.263 225.21 701.919 224.6L701.752 224.33C701.013 223.391 700.224 222.51 699.39 221.691C698.515 221.533 697.648 221.313 696.794 221.032C691.626 219.341 687.067 215.668 683.82 210.58C680.572 205.492 678.817 199.27 678.823 192.873C678.819 192.843 678.819 192.813 678.823 192.783C678.826 188.202 679.739 183.687 681.486 179.608C681.838 178.789 682.215 177.999 682.625 177.229C682.243 177.085 681.87 176.904 681.512 176.689C680.9 176.33 680.367 175.807 679.954 175.16C679.613 174.584 679.392 173.919 679.309 173.221C679.167 171.573 679.375 169.91 679.912 168.383C680.141 167.648 680.401 166.927 680.691 166.224C680.714 166.182 680.733 166.139 680.749 166.094C684.493 157.097 692.473 151.569 700.445 151.18C709.046 150.77 717.42 155.588 724.203 162.485C726.227 164.467 728.038 166.74 729.596 169.252C733.138 175.13 734.737 182.647 735.206 190.094C735.383 192.397 735.349 194.717 735.106 197.011C735.017 197.829 734.877 198.638 734.687 199.43C734.578 199.9 734.436 200.37 734.285 200.84C734.134 201.31 734.042 201.52 733.908 201.839V201.889C733.783 202.209 733.64 202.509 733.498 202.809L733.423 202.939L733.314 203.149C733.381 203.339 733.456 203.539 733.532 203.729C733.607 203.919 733.674 204.098 733.758 204.278H733.858C735.533 204.438 737.082 204.718 738.791 204.878C739.594 204.924 740.391 205.071 741.169 205.318C742.844 205.918 744.108 207.377 745.515 208.557C748.999 211.496 753.286 212.865 756.711 215.904C761.736 220.382 764.248 227.779 767.296 234.406C771.316 243.283 777.864 250.84 780.753 260.336C782.06 264.648 783.372 268.953 784.689 273.251C787.26 281.678 789.831 290.144 793.323 298.091C798.18 309.147 804.754 319.083 808.648 330.698C809.034 331.862 809.76 332.82 810.691 333.397C815.997 342.341 820.714 351.762 824.801 361.576C826.953 366.764 828.988 372.151 829.616 377.899C830.106 383.017 829.751 388.199 828.57 393.153C827.902 396.096 827.082 398.987 826.116 401.81C825.739 402.798 825.458 403.834 825.279 404.898C825.279 405.008 825.279 405.118 825.279 405.228C825.111 407.147 825.722 409.047 825.89 410.966C826.03 412.511 825.884 414.074 825.463 415.544C825.396 415.774 825.32 416.004 825.245 416.234C824.726 417.403 824.286 418.619 823.93 419.872C823.9 420.024 823.877 420.177 823.863 420.332C823.587 422.501 824.307 424.69 824.701 426.86C826.175 434.696 825.907 442.853 825.538 450.85C825.346 454.848 828.05 458.057 830.311 461.006C834.498 466.534 837.773 473.001 840.93 479.439C842.652 482.707 844.103 486.168 845.259 489.774C846.457 493.893 846.934 498.251 847.596 502.519C849.731 515.714 856.707 527.369 858.599 540.594C859.477 546.65 861.714 552.309 865.072 556.968C866.084 558.215 867.016 559.552 867.861 560.966C868.444 562.093 868.908 563.301 869.243 564.564C870.066 567.504 870.454 570.592 870.39 573.691C870.257 575.174 870.328 576.673 870.599 578.129C871.386 581.198 874.2 582.887 875.364 585.776C876.528 588.665 875.724 592.363 876.202 595.642C876.576 598.286 877.772 600.663 879.551 602.299C878.881 602.999 878.178 603.639 877.458 604.299C878.124 604.917 878.709 605.651 879.191 606.478C879.521 607.031 879.802 607.624 880.029 608.247C881.134 611.316 881.167 614.964 882.072 618.243C882.457 619.603 883.001 621.042 882.666 622.421C882.523 622.817 882.427 623.234 882.382 623.661C882.382 624.561 883.169 625.15 883.47 625.97C883.58 626.382 883.598 626.821 883.521 627.244C883.445 627.666 883.277 628.058 883.035 628.379Z" fill="url(#paint0_linear_5_3)"/>
<path d="M705.805 238.535C710.93 236.885 715.494 233.437 719.965 230.028L735.55 218.183C731.321 217.783 727.67 214.184 725.501 209.826C723.332 205.468 722.436 200.4 721.699 195.422C715 198.541 709.196 203.829 703.787 209.416C701.643 211.625 697.087 214.964 696.426 218.413C695.764 221.861 699.985 224.66 701.618 226.969C702.179 227.739 707.463 237.985 705.805 238.535Z" fill="#FBBEBE"/>
<path opacity="0.1" d="M705.805 238.535C710.93 236.885 715.494 233.437 719.965 230.028L735.55 218.183C731.321 217.783 727.67 214.184 725.501 209.826C723.332 205.468 722.436 200.4 721.699 195.422C715 198.541 709.196 203.829 703.787 209.416C701.643 211.625 697.087 214.964 696.426 218.413C695.764 221.861 699.985 224.66 701.618 226.969C702.179 227.739 707.463 237.985 705.805 238.535Z" fill="black"/>
<path d="M620.648 336.376C617.902 338.055 614.979 339.774 611.906 339.534C609.142 339.324 606.622 337.535 604.545 335.346C602.87 333.607 601.145 331.438 598.943 331.618C597.469 331.738 596.229 332.927 595.09 334.057L589.019 340.124C587.997 340.944 587.225 342.136 586.817 343.523C586.697 344.464 586.745 345.425 586.959 346.342C587.236 347.961 587.696 349.85 589.002 350.4C590.309 350.95 591.732 349.77 593.114 349.32C593.958 349.063 594.845 349.082 595.681 349.376C596.516 349.67 597.27 350.227 597.862 350.99C598.356 351.569 598.654 352.345 598.7 353.169C598.7 354.978 597.025 356.168 595.484 356.258C593.943 356.348 592.469 355.748 590.945 355.858C590.853 355.844 590.76 355.852 590.671 355.882C590.581 355.912 590.498 355.963 590.425 356.032C590.353 356.101 590.292 356.186 590.248 356.283C590.204 356.381 590.176 356.487 590.167 356.598C590.072 357.229 590.112 357.879 590.283 358.487C590.455 359.095 590.751 359.641 591.146 360.076C591.942 360.943 592.868 361.622 593.876 362.075C595.048 362.767 596.312 363.207 597.611 363.375C600.182 363.575 602.543 361.875 604.98 360.886C608.263 359.566 611.797 359.526 615.264 359.536C618.731 359.546 622.248 359.606 625.572 358.447C628.897 357.287 632.054 354.718 633.352 350.89C633.505 350.533 633.555 350.125 633.494 349.73C633.365 349.309 633.116 348.956 632.791 348.731C628.118 344.602 626.226 339.584 620.967 336.616L620.648 336.376Z" fill="#FBBEBE"/>
<path opacity="0.1" d="M620.648 336.376C617.902 338.055 614.979 339.774 611.906 339.534C609.142 339.324 606.622 337.535 604.545 335.346C602.87 333.607 601.145 331.438 598.943 331.618C597.469 331.738 596.229 332.927 595.09 334.057L589.019 340.124C587.997 340.944 587.225 342.136 586.817 343.523C586.697 344.464 586.745 345.425 586.959 346.342C587.236 347.961 587.696 349.85 589.002 350.4C590.309 350.95 591.732 349.77 593.114 349.32C593.958 349.063 594.845 349.082 595.681 349.376C596.516 349.67 597.27 350.227 597.862 350.99C598.356 351.569 598.654 352.345 598.7 353.169C598.7 354.978 597.025 356.168 595.484 356.258C593.943 356.348 592.469 355.748 590.945 355.858C590.853 355.844 590.76 355.852 590.671 355.882C590.581 355.912 590.498 355.963 590.425 356.032C590.353 356.101 590.292 356.186 590.248 356.283C590.204 356.381 590.176 356.487 590.167 356.598C590.072 357.229 590.112 357.879 590.283 358.487C590.455 359.095 590.751 359.641 591.146 360.076C591.942 360.943 592.868 361.622 593.876 362.075C595.048 362.767 596.312 363.207 597.611 363.375C600.182 363.575 602.543 361.875 604.98 360.886C608.263 359.566 611.797 359.526 615.264 359.536C618.731 359.546 622.248 359.606 625.572 358.447C628.897 357.287 632.054 354.718 633.352 350.89C633.505 350.533 633.555 350.125 633.494 349.73C633.365 349.309 633.116 348.956 632.791 348.731C628.118 344.602 626.226 339.584 620.967 336.616L620.648 336.376Z" fill="black"/>
<path d="M718.709 229.768C717.41 228.767 715.935 228.136 714.399 227.923C712.863 227.709 711.307 227.92 709.85 228.539C706.932 229.793 704.314 231.875 702.221 234.606C700.131 237.15 698.321 240.002 696.836 243.093C695.413 246.092 694.324 249.23 692.9 252.219C690.388 257.567 687.105 262.285 683.806 266.963C681.754 269.872 679.678 272.821 677.048 274.96C674.419 277.099 671.479 278.409 669.696 281.378C669.135 282.317 668.733 283.377 668.18 284.326C666.43 287.385 663.457 289.025 660.869 291.074C653.45 296.971 648.836 306.787 641.902 313.475C638.912 316.354 635.538 318.613 632.598 321.552C629.86 324.28 627.574 327.549 624.844 330.348C622.114 333.147 618.907 335.456 615.348 335.716C617.726 342.043 620.565 348.251 624.643 353.179C628.721 358.107 634.834 361.256 640.403 359.326C642.379 358.647 644.314 357.207 645.067 354.928C645.304 353.757 645.635 352.615 646.055 351.52C646.615 350.64 647.341 349.931 648.174 349.45C670.529 333.874 691.838 316.252 711.91 296.741C717.294 291.504 722.637 286.815 728.164 281.747C730.145 280.07 731.978 278.154 733.632 276.03C735.937 272.744 737.377 268.718 737.77 264.459C738.164 260.199 737.493 255.895 735.843 252.089C734.361 249.178 732.663 246.431 730.768 243.883C727.322 238.527 723.263 233.776 718.709 229.768Z" fill="#683C9D"/>
<path opacity="0.1" d="M718.709 229.768C717.41 228.767 715.935 228.136 714.399 227.923C712.863 227.709 711.307 227.92 709.85 228.539C706.932 229.793 704.314 231.875 702.221 234.606C700.131 237.15 698.321 240.002 696.836 243.093C695.413 246.092 694.324 249.23 692.9 252.219C690.388 257.567 687.105 262.285 683.806 266.963C681.754 269.872 679.678 272.821 677.048 274.96C674.419 277.099 671.479 278.409 669.696 281.378C669.135 282.317 668.733 283.377 668.18 284.326C666.43 287.385 663.457 289.025 660.869 291.074C653.45 296.971 648.836 306.787 641.902 313.475C638.912 316.354 635.538 318.613 632.598 321.552C629.86 324.28 627.574 327.549 624.844 330.348C622.114 333.147 618.907 335.456 615.348 335.716C617.726 342.043 620.565 348.251 624.643 353.179C628.721 358.107 634.834 361.256 640.403 359.326C642.379 358.647 644.314 357.207 645.067 354.928C645.304 353.757 645.635 352.615 646.055 351.52C646.615 350.64 647.341 349.931 648.174 349.45C670.529 333.874 691.838 316.252 711.91 296.741C717.294 291.504 722.637 286.815 728.164 281.747C730.145 280.07 731.978 278.154 733.632 276.03C735.937 272.744 737.377 268.718 737.77 264.459C738.164 260.199 737.493 255.895 735.843 252.089C734.361 249.178 732.663 246.431 730.768 243.883C727.322 238.527 723.263 233.776 718.709 229.768Z" fill="black"/>
<path d="M682.726 600.59C681.26 601.59 679.46 602.15 678.43 603.769C678.095 604.289 677.869 604.898 677.509 605.398C676.395 606.958 674.419 607.028 672.869 607.917C671.63 608.617 670.625 609.916 669.31 610.326C668.524 610.549 667.713 610.623 666.907 610.546L658.767 610.256C656.188 610.166 653.165 610.326 651.666 612.835C651.179 613.754 650.833 614.77 650.644 615.834C650.016 618.703 649.506 621.952 650.82 624.471C652.395 627.469 655.845 628.079 658.818 628.279C670.302 629.038 681.818 628.77 693.269 627.479C694.818 627.243 696.381 627.166 697.942 627.249C699.181 627.369 700.395 627.699 701.618 627.949C707.79 629.199 714.104 628.469 720.334 627.729C721.387 627.669 722.425 627.406 723.407 626.95C723.896 626.711 724.329 626.335 724.669 625.853C725.009 625.37 725.246 624.796 725.358 624.181C725.618 622.122 724.002 620.372 723.826 618.303C723.7 616.844 724.287 615.214 723.617 613.975C723.366 613.609 723.085 613.275 722.779 612.975C721.657 611.586 721.33 609.557 721.054 607.657L719.589 597.391C719.548 596.668 719.299 595.983 718.885 595.452C718.577 595.187 718.222 595.013 717.847 594.942C711.466 593.223 704.926 594.792 698.586 595.752C695.324 596.323 692.024 596.52 688.73 596.342C687.306 596.232 686.754 596.032 685.69 597.142C684.627 598.251 684.057 599.661 682.726 600.59Z" fill="#3F3D56"/>
<path d="M836.818 612.945C835.698 613.693 834.498 614.254 833.251 614.615C829.962 615.761 826.68 616.957 823.403 618.203C822.531 618.461 821.712 618.93 820.999 619.583C819.86 620.782 819.567 622.741 819.484 624.581C819.375 625.594 819.476 626.623 819.777 627.579C820.169 628.476 820.745 629.239 821.451 629.798C825.203 633.187 830.102 634.237 834.808 634.237C839.514 634.237 844.187 633.287 848.893 633.137C854.579 632.957 860.416 633.917 865.885 632.018C866.928 631.557 868.013 631.242 869.117 631.078C869.851 631.065 870.585 631.121 871.311 631.248C874.244 631.594 877.205 631.272 880.037 630.298C880.889 630.073 881.682 629.603 882.348 628.929C882.678 628.588 882.913 628.137 883.024 627.634C883.134 627.131 883.115 626.6 882.968 626.11C882.666 625.3 881.896 624.711 881.888 623.821C881.927 623.394 882.02 622.976 882.164 622.581C882.507 621.212 881.955 619.782 881.569 618.433C880.489 614.575 880.665 610.136 878.73 606.788C876.796 603.439 873.245 602.06 869.871 601.53C867.128 601.067 864.339 601.162 861.622 601.81C858.566 602.589 855.71 604.219 852.712 605.258C849.233 606.453 845.598 606.863 841.993 606.468C839.598 606.228 840.419 606.678 839.607 609.077C839.031 610.677 838.057 612.027 836.818 612.945Z" fill="#3F3D56"/>
<path d="M703.008 224.67C716.42 224.67 727.293 211.692 727.293 195.682C727.293 179.672 716.42 166.693 703.008 166.693C689.596 166.693 678.723 179.672 678.723 195.682C678.723 211.692 689.596 224.67 703.008 224.67Z" fill="#FBBEBE"/>
<path d="M879.065 602.579C871.529 610.306 861.354 613.685 851.431 613.805C847.244 613.855 842.898 613.315 839.33 610.726C839.079 609.087 838.979 607.317 838.727 605.678C834.398 604.599 831.04 600.39 828.946 595.732C826.853 591.074 825.789 585.896 824.232 580.958C821.853 573.441 818.37 566.514 814.886 559.636C811.687 553.299 808.48 546.942 804.837 540.954C802.425 536.956 799.813 533.197 797.426 529.209C790.665 518.106 785.812 505.516 783.148 492.163C782.741 489.603 782.161 487.086 781.415 484.636C779.974 480.458 777.337 477.059 775.302 473.251C773.107 469.141 771.603 464.561 770.872 459.766C770.461 457.047 769.758 454.109 767.472 453.829C762.665 464.974 757.766 476.3 750.498 485.366C749.355 486.675 748.31 488.1 747.374 489.624C746.623 491.105 745.952 492.641 745.364 494.223C744.237 497.059 742.739 499.664 740.926 501.94C739.407 503.88 737.404 505.183 735.215 505.658C736.829 515.263 735.868 525.231 732.468 534.147C731.455 536.786 730.241 539.305 729.286 541.974C725.384 552.969 726.288 565.374 725.878 577.299C725.842 579.798 725.595 582.287 725.141 584.727C724.127 589.605 722.034 594.792 723.047 599.671C712.546 604.459 700.881 604.159 689.76 602.14C687.585 601.902 685.473 601.137 683.555 599.89C681.978 598.558 680.601 596.915 679.485 595.032C679.054 594.484 678.736 593.823 678.555 593.103C678.12 590.824 680.23 589.105 681.21 587.106C682.19 585.106 682.366 581.938 681.017 580.298C681.687 567.214 684.719 554.439 685.389 541.314C685.657 536.116 685.548 530.898 685.749 525.69C685.95 520.482 686.419 515.414 686.904 510.296C688.01 498.611 690.69 487.155 690.313 475.41C690.198 471.795 690.895 468.21 692.331 465.024C693.541 462.604 694.914 460.304 696.434 458.147C701.576 450.22 707.756 442.273 709.59 432.487C710.536 427.439 712.63 422.821 714.707 418.283C715.938 415.574 717.219 412.805 719.178 410.816C720.244 409.936 721.235 408.931 722.134 407.817C723.508 405.708 723.558 402.819 724.37 400.3C724.789 399.001 725.434 397.801 725.744 396.462C725.999 394.982 726.125 393.474 726.12 391.963C726.388 387.125 727.946 382.447 729.587 378.019C725.727 375.351 722.319 371.846 719.538 367.683C718.604 366.331 717.79 364.867 717.11 363.315C715.385 359.257 714.991 354.628 714.179 350.18C712.245 339.564 707.798 329.578 707.178 318.733C706.994 315.424 707.178 312.005 706.215 308.877C705.771 307.553 705.25 306.267 704.658 305.028C704.074 303.811 703.629 302.507 703.334 301.15C702.799 298.201 703.535 295.152 703.334 292.153C703.133 289.504 702.187 287.025 701.718 284.436C701.24 281.068 701.158 277.636 701.475 274.24C701.685 270.242 702.413 266.114 702.129 262.165C701.667 255.632 702.364 249.055 704.175 242.865C705.986 236.675 708.87 231.01 712.638 226.24L712.831 226.01C714.43 224.011 716.18 222.241 717.621 220.122C719.58 217.283 720.97 213.945 723.039 211.186C723.943 209.956 724.965 208.857 725.861 207.617C726.683 206.317 727.593 205.1 728.582 203.979C729.083 203.424 729.689 203.023 730.349 202.813C731.009 202.602 731.702 202.587 732.368 202.769C732.535 204.26 732.927 205.702 733.523 207.027C735.265 207.187 736.814 207.477 738.548 207.637C739.351 207.683 740.148 207.83 740.926 208.077C742.559 208.667 743.865 210.076 745.264 211.286C748.747 214.214 753.027 215.574 756.452 218.593C761.476 223.041 763.988 230.388 767.02 236.975C771.031 245.802 777.571 253.309 780.418 262.745L784.346 275.58C786.917 283.957 789.487 292.363 792.971 300.26C797.82 311.256 804.385 321.162 808.279 332.667C808.668 333.821 809.39 334.771 810.314 335.346C815.616 344.223 820.328 353.581 824.408 363.335C826.56 368.493 828.595 373.851 829.214 379.558C830.127 387.625 828.285 395.782 825.722 403.319C825.308 404.398 825.026 405.543 824.885 406.718C824.717 408.627 825.329 410.506 825.496 412.415C825.658 414.198 825.436 416.001 824.851 417.653C824.331 418.814 823.891 420.025 823.537 421.272C823.084 423.571 823.888 425.91 824.324 428.209C825.798 435.996 825.53 444.063 825.161 452.039C824.969 456.038 827.673 459.207 829.926 462.135C834.113 467.623 837.379 474.041 840.536 480.448C842.253 483.698 843.7 487.139 844.857 490.724C846.055 494.812 846.532 499.141 847.194 503.389C849.321 516.494 856.288 528.079 858.18 541.224C859.057 547.246 861.292 552.869 864.645 557.487C865.656 558.737 866.588 560.073 867.434 561.486C868.012 562.607 868.474 563.809 868.807 565.064C869.631 567.983 870.019 571.052 869.954 574.131C869.822 575.604 869.892 577.093 870.164 578.539C870.951 581.588 873.765 583.267 874.92 586.136C876.076 589.005 875.28 592.683 875.758 595.942C876.118 598.574 877.3 600.945 879.065 602.579Z" fill="#683C9D"/>
<path d="M625.673 327.379C622.926 329.059 620.004 330.778 616.93 330.538C614.167 330.328 611.646 328.539 609.569 326.35C607.895 324.61 606.169 322.441 603.967 322.621C602.493 322.741 601.254 323.931 600.115 325.06L594.044 331.128C593.022 331.948 592.249 333.14 591.841 334.526C591.721 335.467 591.77 336.428 591.984 337.345C592.26 338.965 592.721 340.854 594.027 341.404C595.333 341.953 596.757 340.774 598.139 340.324C598.983 340.067 599.869 340.086 600.705 340.379C601.541 340.673 602.294 341.231 602.887 341.993C603.38 342.573 603.678 343.348 603.724 344.173C603.724 345.982 602.049 347.171 600.509 347.261C598.968 347.351 597.494 346.752 595.97 346.861C595.878 346.848 595.784 346.856 595.695 346.886C595.606 346.916 595.522 346.966 595.45 347.035C595.377 347.104 595.317 347.19 595.272 347.287C595.228 347.384 595.2 347.491 595.191 347.601C595.096 348.233 595.137 348.882 595.308 349.49C595.479 350.098 595.776 350.645 596.171 351.08C596.966 351.947 597.893 352.625 598.901 353.079C600.072 353.77 601.336 354.21 602.636 354.378C605.206 354.578 607.568 352.879 610.005 351.889C613.287 350.57 616.821 350.53 620.288 350.54C623.755 350.55 627.272 350.61 630.597 349.45C633.921 348.291 637.078 345.722 638.376 341.893C638.53 341.536 638.58 341.129 638.519 340.734C638.389 340.313 638.14 339.959 637.815 339.734C633.143 335.606 631.25 330.588 625.991 327.619L625.673 327.379Z" fill="#FBBEBE"/>
<path d="M691.192 177.869C689.743 178.149 688.512 179.318 687.139 179.968C686.217 180.396 685.23 180.585 684.243 180.523C683.255 180.46 682.29 180.149 681.411 179.608C680.798 179.253 680.262 178.733 679.845 178.089C678.723 176.23 679.116 173.531 679.803 171.352C683.052 161.046 691.728 154.668 700.32 154.258C708.912 153.849 717.269 158.637 724.044 165.484C726.059 167.46 727.867 169.718 729.428 172.211C732.962 178.059 734.562 185.526 735.031 192.923C735.311 196.027 735.138 199.166 734.52 202.199C734.222 203.673 733.679 205.061 732.922 206.279C732.165 207.496 731.211 208.519 730.115 209.286C727.72 210.746 724.848 210.286 722.427 208.887C720.007 207.487 717.931 205.278 715.854 203.169C714.913 202.086 713.799 201.24 712.579 200.68C711.971 200.421 711.313 200.378 710.685 200.555C710.056 200.733 709.484 201.123 709.037 201.679C707.915 203.289 708.2 205.928 707.178 207.677C706.157 209.426 704.03 209.676 702.237 209.676C700.445 209.676 698.628 209.496 697.556 207.797C696.577 206.258 696.719 204.009 697.087 202.069C697.456 200.13 698.084 198.211 697.925 196.222C697.581 192.223 694.65 189.764 693.738 186.086C693.143 183.677 694.45 182.657 694.316 180.478C694.215 178.559 692.49 177.619 691.192 177.869Z" fill="#3F3D56"/>
<path opacity="0.1" d="M767.489 453.579V453.829C762.682 464.974 757.783 476.3 750.514 485.366C749.372 486.675 748.327 488.1 747.391 489.624C746.64 491.105 745.969 492.641 745.381 494.223C744.253 497.059 742.755 499.664 740.943 501.94L734.88 505.558L754.14 385.606L767.489 453.579Z" fill="black"/>
<path opacity="0.1" d="M739.494 272.031C737.84 274.155 736.007 276.071 734.026 277.749C728.499 282.747 723.139 287.465 717.771 292.743C713.445 296.948 709.057 301.066 704.607 305.098C704.024 303.881 703.579 302.577 703.284 301.22C702.748 298.271 703.485 295.222 703.284 292.223C703.083 289.574 702.137 287.095 701.668 284.506C701.189 281.138 701.108 277.706 701.425 274.31C701.634 270.312 702.363 266.184 702.078 262.235C701.615 255.686 702.316 249.094 704.136 242.891C705.956 236.687 708.853 231.013 712.638 226.24L712.831 226.01C713.732 225.384 714.686 224.875 715.678 224.49C717.138 223.879 718.696 223.677 720.233 223.899C721.769 224.12 723.242 224.761 724.538 225.77C729.091 229.778 733.15 234.529 736.596 239.884C738.491 242.433 740.189 245.179 741.671 248.091C743.326 251.893 744.002 256.194 743.615 260.454C743.227 264.714 741.794 268.742 739.494 272.031Z" fill="black"/>
<path d="M723.734 220.772C722.434 219.771 720.96 219.139 719.424 218.926C717.888 218.713 716.331 218.924 714.874 219.542C711.957 220.797 709.338 222.879 707.245 225.61C705.155 228.154 703.346 231.006 701.861 234.097C700.437 237.095 699.348 240.234 697.925 243.223C695.413 248.571 692.13 253.289 688.83 257.967C686.779 260.876 684.702 263.825 682.073 265.964C679.443 268.103 676.504 269.412 674.72 272.381C674.159 273.321 673.757 274.38 673.204 275.33C671.454 278.389 668.481 280.028 665.894 282.077C658.474 287.975 653.86 297.791 646.926 304.478C643.937 307.357 640.562 309.616 637.623 312.555C634.884 315.284 632.598 318.553 629.868 321.352C627.138 324.151 623.931 326.46 620.372 326.72C622.75 333.047 625.589 339.255 629.667 344.183C633.745 349.111 639.859 352.259 645.427 350.33C647.404 349.65 649.338 348.211 650.092 345.932C650.329 344.76 650.66 343.619 651.08 342.523C651.639 341.644 652.365 340.934 653.199 340.454C675.553 324.878 696.862 307.255 716.934 287.745C722.319 282.507 727.661 277.819 733.188 272.751C735.17 271.073 737.002 269.157 738.657 267.033C740.962 263.748 742.401 259.722 742.795 255.462C743.188 251.202 742.517 246.899 740.867 243.093C739.385 240.181 737.687 237.435 735.793 234.886C732.346 229.531 728.287 224.78 723.734 220.772Z" fill="#683C9D"/>
<g opacity="0.1">
<path d="M703.912 205.648C702.237 205.648 700.303 205.468 699.231 203.769C698.26 202.229 698.394 199.98 698.762 198.041C699.131 196.102 699.759 194.182 699.6 192.193C699.256 188.195 696.325 185.736 695.413 182.057C694.818 179.648 696.124 178.629 695.99 176.45C695.873 174.56 694.156 173.621 692.858 173.871C691.41 174.15 690.179 175.32 688.805 175.97C687.884 176.397 686.896 176.586 685.909 176.524C684.922 176.462 683.956 176.15 683.077 175.61C682.464 175.254 681.928 174.734 681.512 174.09C680.389 172.231 680.783 169.532 681.47 167.353C681.47 167.273 681.528 167.203 681.553 167.123C680.853 168.461 680.264 169.877 679.795 171.352C679.108 173.531 678.715 176.23 679.837 178.089C680.254 178.733 680.79 179.253 681.403 179.608C682.282 180.149 683.247 180.46 684.234 180.523C685.222 180.585 686.209 180.396 687.131 179.968C688.504 179.318 689.735 178.149 691.184 177.869C692.482 177.619 694.198 178.559 694.316 180.448C694.45 182.627 693.143 183.647 693.738 186.056C694.634 189.734 697.565 192.233 697.925 196.192C698.092 198.191 697.481 200.11 697.087 202.039C696.694 203.969 696.585 206.228 697.556 207.767C698.628 209.466 700.546 209.626 702.237 209.646C703.929 209.666 706.106 209.526 707.178 207.647C707.641 206.703 707.945 205.661 708.074 204.578C706.935 205.548 705.344 205.668 703.912 205.648Z" fill="black"/>
<path d="M731.79 205.288C729.395 206.747 726.522 206.288 724.102 204.888C721.682 203.489 719.605 201.28 717.529 199.17C716.588 198.088 715.474 197.241 714.254 196.681C713.646 196.423 712.988 196.379 712.359 196.557C711.731 196.734 711.159 197.125 710.712 197.681C710.143 198.685 709.784 199.836 709.665 201.04C710.101 200.733 710.586 200.542 711.089 200.478C711.591 200.414 712.1 200.48 712.579 200.67C713.799 201.23 714.913 202.076 715.854 203.159C717.931 205.268 720.041 207.487 722.427 208.877C724.814 210.266 727.72 210.736 730.115 209.276C732.233 207.797 733.777 205.379 734.411 202.549C733.723 203.688 732.826 204.624 731.79 205.288Z" fill="black"/>
</g>
<path d="M523.383 635.006C537.258 635.006 548.505 621.58 548.505 605.018C548.505 588.456 537.258 575.03 523.383 575.03C509.508 575.03 498.26 588.456 498.26 605.018C498.26 621.58 509.508 635.006 523.383 635.006Z" fill="#3F3D56"/>
<path opacity="0.1" d="M523.383 635.006C537.258 635.006 548.505 621.58 548.505 605.018C548.505 588.456 537.258 575.03 523.383 575.03C509.508 575.03 498.26 588.456 498.26 605.018C498.26 621.58 509.508 635.006 523.383 635.006Z" fill="black"/>
<path d="M523.383 624.011C532.17 624.011 539.294 615.508 539.294 605.018C539.294 594.529 532.17 586.026 523.383 586.026C514.596 586.026 507.472 594.529 507.472 605.018C507.472 615.508 514.596 624.011 523.383 624.011Z" fill="#65617D"/>
<path opacity="0.1" d="M523.383 624.011C532.17 624.011 539.294 615.508 539.294 605.018C539.294 594.529 532.17 586.026 523.383 586.026C514.596 586.026 507.472 594.529 507.472 605.018C507.472 615.508 514.596 624.011 523.383 624.011Z" fill="black"/>
<path d="M504.122 558.037L520.603 602.519C520.848 603.186 521.248 603.755 521.756 604.16C522.263 604.564 522.857 604.787 523.467 604.801C524.077 604.816 524.678 604.622 525.198 604.243C525.719 603.863 526.138 603.314 526.406 602.659L545.993 555.038L504.122 558.037Z" fill="#3F3D56"/>
<path opacity="0.1" d="M504.122 558.037L520.603 602.519C520.848 603.186 521.248 603.755 521.756 604.16C522.263 604.564 522.857 604.787 523.467 604.801C524.077 604.816 524.678 604.622 525.198 604.243C525.719 603.863 526.138 603.314 526.406 602.659L545.993 555.038L504.122 558.037Z" fill="black"/>
<path d="M366.787 635.006C380.661 635.006 391.909 621.58 391.909 605.018C391.909 588.456 380.661 575.03 366.787 575.03C352.912 575.03 341.664 588.456 341.664 605.018C341.664 621.58 352.912 635.006 366.787 635.006Z" fill="#3F3D56"/>
<path opacity="0.1" d="M366.787 635.006C380.661 635.006 391.909 621.58 391.909 605.018C391.909 588.456 380.661 575.03 366.787 575.03C352.912 575.03 341.664 588.456 341.664 605.018C341.664 621.58 352.912 635.006 366.787 635.006Z" fill="black"/>
<path d="M366.787 624.011C375.574 624.011 382.698 615.508 382.698 605.018C382.698 594.529 375.574 586.026 366.787 586.026C357.999 586.026 350.876 594.529 350.876 605.018C350.876 615.508 357.999 624.011 366.787 624.011Z" fill="#65617D"/>
<path opacity="0.1" d="M366.787 624.011C375.574 624.011 382.698 615.508 382.698 605.018C382.698 594.529 375.574 586.026 366.787 586.026C357.999 586.026 350.876 594.529 350.876 605.018C350.876 615.508 357.999 624.011 366.787 624.011Z" fill="black"/>
<path d="M347.526 558.037L364.006 602.519C364.252 603.186 364.652 603.755 365.159 604.16C365.667 604.564 366.261 604.787 366.871 604.801C367.481 604.816 368.082 604.622 368.602 604.243C369.123 603.863 369.542 603.314 369.81 602.659L389.397 555.038L347.526 558.037Z" fill="#3F3D56"/>
<path opacity="0.1" d="M347.526 558.037L364.006 602.519C364.252 603.186 364.652 603.755 365.159 604.16C365.667 604.564 366.261 604.787 366.871 604.801C367.481 604.816 368.082 604.622 368.602 604.243C369.123 603.863 369.542 603.314 369.81 602.659L389.397 555.038L347.526 558.037Z" fill="black"/>
<path d="M604.913 343.873C604.845 343.115 604.618 342.391 604.253 341.766C603.889 341.141 603.399 340.634 602.828 340.294C602.348 340.05 601.831 339.923 601.308 339.922C600.786 339.921 600.269 340.045 599.787 340.288C599.306 340.53 598.87 340.886 598.507 341.333C598.143 341.781 597.858 342.311 597.67 342.893L583.258 385.606L579.071 577.529H585.77L588.282 386.016L604.562 346.772C604.932 345.874 605.055 344.859 604.913 343.873Z" fill="#3F3D56"/>
<path d="M308.587 562.535L331.197 545.542L575.302 543.043L581.583 562.535H308.587Z" fill="#683C9D"/>
<path d="M308.587 580.528V562.535L586.005 559.337L585.737 571.532H313.611V580.528H308.587Z" fill="#3F3D56"/>
<path d="M343.758 645.502C357.633 645.502 368.88 632.076 368.88 615.514C368.88 598.952 357.633 585.526 343.758 585.526C329.883 585.526 318.635 598.952 318.635 615.514C318.635 632.076 329.883 645.502 343.758 645.502Z" fill="#3F3D56"/>
<path d="M343.758 634.507C352.545 634.507 359.669 626.003 359.669 615.514C359.669 605.025 352.545 596.522 343.758 596.522C334.971 596.522 327.847 605.025 327.847 615.514C327.847 626.003 334.971 634.507 343.758 634.507Z" fill="#65617D"/>
<path d="M324.497 568.533L340.978 613.015C341.223 613.682 341.623 614.251 342.131 614.655C342.638 615.06 343.232 615.282 343.842 615.297C344.452 615.312 345.053 615.118 345.573 614.738C346.094 614.359 346.513 613.81 346.781 613.155L366.368 565.534L324.497 568.533Z" fill="#3F3D56"/>
<path d="M538.875 645.502C552.75 645.502 563.997 632.076 563.997 615.514C563.997 598.952 552.75 585.526 538.875 585.526C525 585.526 513.753 598.952 513.753 615.514C513.753 632.076 525 645.502 538.875 645.502Z" fill="#3F3D56"/>
<path d="M538.875 634.507C547.662 634.507 554.786 626.003 554.786 615.514C554.786 605.025 547.662 596.522 538.875 596.522C530.088 596.522 522.964 605.025 522.964 615.514C522.964 626.003 530.088 634.507 538.875 634.507Z" fill="#65617D"/>
<path d="M519.615 568.533L536.095 613.015C536.34 613.682 536.74 614.251 537.248 614.655C537.755 615.06 538.349 615.282 538.959 615.297C539.569 615.312 540.17 615.118 540.691 614.738C541.211 614.359 541.63 613.81 541.898 613.155L561.485 565.534L519.615 568.533Z" fill="#3F3D56"/>
<path d="M444.666 484.067H339.99V553.039H444.666V484.067Z" fill="#65617D"/>
<path opacity="0.1" d="M408.657 496.062H376.836V504.059H408.657V496.062Z" fill="black"/>
<path opacity="0.1" d="M404.68 497.061H380.813V503.059H404.68V497.061Z" fill="black"/>
<path d="M551.017 484.067H446.341V553.039H551.017V484.067Z" fill="#65617D"/>
<path opacity="0.1" d="M515.009 496.062H483.187V504.059H515.009V496.062Z" fill="black"/>
<path opacity="0.1" d="M511.031 497.061H487.165V503.059H511.031V497.061Z" fill="black"/>
<path d="M444.666 413.095H339.99V482.067H444.666V413.095Z" fill="#65617D"/>
<path opacity="0.1" d="M408.657 425.09H376.836V433.087H408.657V425.09Z" fill="black"/>
<path opacity="0.1" d="M404.68 426.09H380.813V432.087H404.68V426.09Z" fill="black"/>
<path d="M551.017 413.095H446.341V482.067H551.017V413.095Z" fill="#65617D"/>
<path opacity="0.1" d="M515.009 425.09H483.187V433.087H515.009V425.09Z" fill="black"/>
<path opacity="0.1" d="M511.031 426.09H487.165V432.087H511.031V426.09Z" fill="black"/>
<path d="M444.666 341.124H339.99V410.096H444.666V341.124Z" fill="#65617D"/>
<path opacity="0.1" d="M408.657 353.119H376.836V361.116H408.657V353.119Z" fill="black"/>
<path opacity="0.1" d="M404.68 354.119H380.813V360.116H404.68V354.119Z" fill="black"/>
<path d="M551.017 341.124H446.341V410.096H551.017V341.124Z" fill="#65617D"/>
<path opacity="0.1" d="M515.009 353.119H483.187V361.116H515.009V353.119Z" fill="black"/>
<path opacity="0.1" d="M511.031 354.119H487.165V360.116H511.031V354.119Z" fill="black"/>
<path d="M551.017 269.152H446.341V338.125H551.017V269.152Z" fill="#65617D"/>
<path opacity="0.1" d="M515.009 281.148H483.187V289.145H515.009V281.148Z" fill="black"/>
<path opacity="0.1" d="M511.031 282.147H487.165V288.145H511.031V282.147Z" fill="black"/>
</g>
<defs>
<linearGradient id="paint0_linear_5_3" x1="735.106" y1="634.147" x2="735.106" y2="151.2" gradientUnits="userSpaceOnUse">
<stop stop-color="#808080" stop-opacity="0.25"/>
<stop offset="0.54" stop-color="#808080" stop-opacity="0.12"/>
<stop offset="1" stop-color="#808080" stop-opacity="0.1"/>
</linearGradient>
<clipPath id="clip0_5_3">
<rect width="958" height="651" fill="white"/>
</clipPath>
</defs>
</svg>
